<svg width="104" height="57" viewBox="0 0 104 57" fill="none" xmlns="http://www.w3.org/2000/svg">
<path d="M8.78438 44.3828H10.2844C10.2063 45.1016 10.0005 45.7448 9.66719 46.3125C9.33386 46.8802 8.8625 47.3307 8.25313 47.6641C7.64375 47.9922 6.88334 48.1562 5.97188 48.1562C5.30521 48.1562 4.69844 48.0312 4.15157 47.7812C3.6099 47.5312 3.14375 47.1771 2.75313 46.7188C2.3625 46.2552 2.06042 45.7005 1.84688 45.0547C1.63854 44.4036 1.53438 43.6797 1.53438 42.8828V41.75C1.53438 40.9531 1.63854 40.2318 1.84688 39.5859C2.06042 38.9349 2.36511 38.3776 2.76094 37.9141C3.16198 37.4505 3.64375 37.0938 4.20625 36.8438C4.76875 36.5938 5.40157 36.4688 6.10469 36.4688C6.96407 36.4688 7.69063 36.6302 8.28438 36.9531C8.87813 37.276 9.33907 37.724 9.66719 38.2969C10.0005 38.8646 10.2063 39.5234 10.2844 40.2734H8.78438C8.71146 39.7422 8.57604 39.2865 8.37813 38.9062C8.18021 38.5208 7.89896 38.224 7.53438 38.0156C7.16979 37.8073 6.69323 37.7031 6.10469 37.7031C5.59948 37.7031 5.15417 37.7995 4.76875 37.9922C4.38854 38.1849 4.06823 38.4583 3.80782 38.8125C3.55261 39.1667 3.3599 39.5911 3.22969 40.0859C3.09948 40.5807 3.03438 41.1302 3.03438 41.7344V42.8828C3.03438 43.4401 3.09167 43.9635 3.20625 44.4531C3.32604 44.9427 3.50573 45.3724 3.74532 45.7422C3.9849 46.112 4.28959 46.4036 4.65938 46.6172C5.02917 46.8255 5.46667 46.9297 5.97188 46.9297C6.6125 46.9297 7.12292 46.8281 7.50313 46.625C7.88334 46.4219 8.16979 46.1302 8.3625 45.75C8.56042 45.3698 8.70104 44.9141 8.78438 44.3828ZM19.5575 46.7734V48H13.87V46.7734H19.5575ZM14.1669 36.625V48H12.6591V36.625H14.1669ZM28.8306 46.7734V48H22.8072V46.7734H28.8306ZM23.1119 36.625V48H21.6041V36.625H23.1119ZM28.0338 41.5156V42.7422H22.8072V41.5156H28.0338ZM28.7525 36.625V37.8594H22.8072V36.625H28.7525ZM35.2288 37.6328L31.4631 48H29.9241L34.26 36.625H35.2522L35.2288 37.6328ZM38.385 48L34.6116 37.6328L34.5881 36.625H35.5803L39.9319 48H38.385ZM38.1897 43.7891V45.0234H31.7991V43.7891H38.1897ZM50.5253 36.625V48H49.0097L43.2831 39.2266V48H41.7753V36.625H43.2831L49.0331 45.4219V36.625H50.5253ZM59.4231 36.625V48H57.9153V36.625H59.4231ZM66.4541 36.625V48H64.9697V36.625H66.4541ZM70.1103 36.625V37.8594H61.3213V36.625H70.1103ZM79.3444 46.7734V48H73.3209V46.7734H79.3444ZM73.6256 36.625V48H72.1178V36.625H73.6256ZM78.5475 41.5156V42.7422H73.3209V41.5156H78.5475ZM79.2663 36.625V37.8594H73.3209V36.625H79.2663ZM82.0081 36.625H83.4691L87.1956 45.8984L90.9144 36.625H92.3831L87.7581 48H86.6175L82.0081 36.625ZM81.5316 36.625H82.8206L83.0316 43.5625V48H81.5316V36.625ZM91.5628 36.625H92.8519V48H91.3519V43.5625L91.5628 36.625ZM101.883 45.125C101.883 44.8594 101.841 44.625 101.758 44.4219C101.68 44.2135 101.539 44.026 101.336 43.8594C101.138 43.6927 100.862 43.5339 100.508 43.3828C100.159 43.2318 99.7161 43.0781 99.1797 42.9219C98.6172 42.7552 98.1094 42.5703 97.6562 42.3672C97.2031 42.1589 96.8151 41.9219 96.4922 41.6562C96.1693 41.3906 95.9219 41.0859 95.75 40.7422C95.5781 40.3984 95.4922 40.0052 95.4922 39.5625C95.4922 39.1198 95.5833 38.7109 95.7656 38.3359C95.9479 37.9609 96.2083 37.6354 96.5469 37.3594C96.8906 37.0781 97.2995 36.8594 97.7734 36.7031C98.2474 36.5469 98.776 36.4688 99.3594 36.4688C100.214 36.4688 100.938 36.6328 101.531 36.9609C102.13 37.2839 102.586 37.7083 102.898 38.2344C103.211 38.7552 103.367 39.3125 103.367 39.9062H101.867C101.867 39.4792 101.776 39.1016 101.594 38.7734C101.411 38.4401 101.135 38.1797 100.766 37.9922C100.396 37.7995 99.9271 37.7031 99.3594 37.7031C98.8229 37.7031 98.3802 37.7839 98.0312 37.9453C97.6823 38.1068 97.4219 38.3255 97.25 38.6016C97.0833 38.8776 97 39.1927 97 39.5469C97 39.7865 97.0495 40.0052 97.1484 40.2031C97.2526 40.3958 97.4115 40.5755 97.625 40.7422C97.8438 40.9089 98.1198 41.0625 98.4531 41.2031C98.7917 41.3438 99.1953 41.4792 99.6641 41.6094C100.31 41.7917 100.867 41.9948 101.336 42.2188C101.805 42.4427 102.19 42.6953 102.492 42.9766C102.799 43.2526 103.026 43.5677 103.172 43.9219C103.323 44.2708 103.398 44.6667 103.398 45.1094C103.398 45.5729 103.305 45.9922 103.117 46.3672C102.93 46.7422 102.661 47.0625 102.312 47.3281C101.964 47.5938 101.544 47.7995 101.055 47.9453C100.57 48.0859 100.029 48.1562 99.4297 48.1562C98.9036 48.1562 98.3854 48.0833 97.875 47.9375C97.3698 47.7917 96.9089 47.5729 96.4922 47.2812C96.0807 46.9896 95.75 46.6302 95.5 46.2031C95.2552 45.7708 95.1328 45.2708 95.1328 44.7031H96.6328C96.6328 45.0938 96.7083 45.4297 96.8594 45.7109C97.0104 45.987 97.2161 46.2161 97.4766 46.3984C97.7422 46.5807 98.0417 46.7161 98.375 46.8047C98.7135 46.888 99.0651 46.9297 99.4297 46.9297C99.9557 46.9297 100.401 46.8568 100.766 46.7109C101.13 46.5651 101.406 46.3568 101.594 46.0859C101.786 45.8151 101.883 45.4948 101.883 45.125Z" fill="#FF0000"/>
<path d="M45.2789 7L46.5695 22.8977C46.5695 23.7836 47.2859 24.5 48.1719 24.5H55.8828C56.7688 24.5 57.4852 23.7836 57.4852 22.8977L58.7594 7H45.2789ZM48.6477 21.4922L48.2812 8.75H49.293L49.6703 21.4922H48.6477ZM52.4922 21.4922H51.5078V8.75H52.4922V21.4922ZM55.3523 21.4922H54.3352L54.707 8.75H55.7188L55.3523 21.4922ZM57.9062 5.03125H55.9375L54.4992 3.77344C54.2969 3.59844 54.0398 3.5 53.7773 3.5H50.2336C49.9656 3.5 49.7031 3.59844 49.5008 3.77344L48.0625 5.03125H46.0938C45.1312 5.03125 44.4531 5.49063 44.4531 6.45312H59.5469C59.5469 5.49063 58.8687 5.03125 57.9062 5.03125Z" fill="#FF0000"/>
</svg>
