<svg width="33" height="48" viewBox="0 0 33 48" fill="none" xmlns="http://www.w3.org/2000/svg">
<path d="M3.47832 42H1.84551L1.85625 41.1567H3.47832C4.03691 41.1567 4.50241 41.0404 4.87481 40.8076C5.2472 40.5713 5.5265 40.2419 5.7127 39.8193C5.90247 39.3932 5.99736 38.8955 5.99736 38.3262V37.8481C5.99736 37.4006 5.94365 37.0031 5.83623 36.6558C5.72881 36.3049 5.57126 36.0094 5.36357 35.7695C5.15589 35.526 4.90166 35.3416 4.60088 35.2163C4.30368 35.091 3.96172 35.0283 3.575 35.0283H1.81328V34.1797H3.575C4.08705 34.1797 4.55433 34.2656 4.97686 34.4375C5.39938 34.6058 5.76283 34.8511 6.06719 35.1733C6.37513 35.492 6.61146 35.8787 6.77617 36.3335C6.94089 36.7847 7.02324 37.2931 7.02324 37.8589V38.3262C7.02324 38.8919 6.94089 39.4022 6.77617 39.8569C6.61146 40.3081 6.37334 40.693 6.06182 41.0117C5.75387 41.3304 5.38148 41.5757 4.94463 41.7476C4.51136 41.9159 4.02259 42 3.47832 42ZM2.39873 34.1797V42H1.36211V34.1797H2.39873ZM11.0621 42.1074C10.6575 42.1074 10.2904 42.0394 9.96102 41.9033C9.63517 41.7637 9.35408 41.5685 9.11775 41.3179C8.88501 41.0672 8.70597 40.77 8.58065 40.4263C8.45532 40.0825 8.39266 39.7065 8.39266 39.2983V39.0728C8.39266 38.6001 8.46248 38.1794 8.60213 37.8105C8.74178 37.4382 8.93156 37.123 9.17147 36.8652C9.41137 36.6074 9.68351 36.4123 9.98787 36.2798C10.2922 36.1473 10.6073 36.0811 10.9332 36.0811C11.3485 36.0811 11.7066 36.1527 12.0074 36.2959C12.3118 36.4391 12.5606 36.6396 12.754 36.8975C12.9473 37.1517 13.0906 37.4525 13.1837 37.7998C13.2768 38.1436 13.3233 38.5195 13.3233 38.9277V39.3735H8.98348V38.5625H12.3297V38.4873C12.3153 38.2295 12.2616 37.9788 12.1685 37.7354C12.079 37.4919 11.9358 37.2913 11.7388 37.1338C11.5419 36.9762 11.2734 36.8975 10.9332 36.8975C10.7076 36.8975 10.4999 36.9458 10.3101 37.0425C10.1204 37.1356 9.95744 37.2752 9.82137 37.4614C9.6853 37.6476 9.57967 37.875 9.50447 38.1436C9.42928 38.4121 9.39168 38.7218 9.39168 39.0728V39.2983C9.39168 39.5741 9.42928 39.8337 9.50447 40.0771C9.58325 40.3171 9.69604 40.5283 9.84285 40.7109C9.99324 40.8936 10.1741 41.0368 10.3853 41.1406C10.6002 41.2445 10.8437 41.2964 11.1158 41.2964C11.4667 41.2964 11.7639 41.2248 12.0074 41.0815C12.2509 40.9383 12.4639 40.7467 12.6466 40.5068L13.2481 40.9849C13.1228 41.1746 12.9635 41.3555 12.7701 41.5273C12.5767 41.6992 12.3386 41.8389 12.0557 41.9463C11.7764 42.0537 11.4452 42.1074 11.0621 42.1074ZM15.7831 33.75V42H14.784V33.75H15.7831ZM20.0099 42.1074C19.6053 42.1074 19.2383 42.0394 18.9088 41.9033C18.583 41.7637 18.3019 41.5685 18.0656 41.3179C17.8328 41.0672 17.6538 40.77 17.5285 40.4263C17.4031 40.0825 17.3405 39.7065 17.3405 39.2983V39.0728C17.3405 38.6001 17.4103 38.1794 17.5499 37.8105C17.6896 37.4382 17.8794 37.123 18.1193 36.8652C18.3592 36.6074 18.6313 36.4123 18.9357 36.2798C19.24 36.1473 19.5552 36.0811 19.881 36.0811C20.2964 36.0811 20.6544 36.1527 20.9552 36.2959C21.2596 36.4391 21.5084 36.6396 21.7018 36.8975C21.8952 37.1517 22.0384 37.4525 22.1315 37.7998C22.2246 38.1436 22.2711 38.5195 22.2711 38.9277V39.3735H17.9313V38.5625H21.2775V38.4873C21.2632 38.2295 21.2094 37.9788 21.1163 37.7354C21.0268 37.4919 20.8836 37.2913 20.6867 37.1338C20.4897 36.9762 20.2212 36.8975 19.881 36.8975C19.6554 36.8975 19.4477 36.9458 19.2579 37.0425C19.0682 37.1356 18.9052 37.2752 18.7692 37.4614C18.6331 37.6476 18.5275 37.875 18.4523 38.1436C18.3771 38.4121 18.3395 38.7218 18.3395 39.0728V39.2983C18.3395 39.5741 18.3771 39.8337 18.4523 40.0771C18.5311 40.3171 18.6439 40.5283 18.7907 40.7109C18.9411 40.8936 19.1219 41.0368 19.3331 41.1406C19.548 41.2445 19.7915 41.2964 20.0636 41.2964C20.4145 41.2964 20.7117 41.2248 20.9552 41.0815C21.1987 40.9383 21.4118 40.7467 21.5944 40.5068L22.1959 40.9849C22.0706 41.1746 21.9113 41.3555 21.7179 41.5273C21.5246 41.6992 21.2864 41.8389 21.0036 41.9463C20.7243 42.0537 20.393 42.1074 20.0099 42.1074ZM26.0844 36.1885V36.9512H22.9423V36.1885H26.0844ZM24.0058 34.7759H24.9994V40.5605C24.9994 40.7575 25.0299 40.9061 25.0907 41.0063C25.1516 41.1066 25.2304 41.1729 25.3271 41.2051C25.4237 41.2373 25.5276 41.2534 25.6386 41.2534C25.721 41.2534 25.8069 41.2463 25.8964 41.2319C25.9895 41.214 26.0593 41.1997 26.1059 41.189L26.1112 42C26.0325 42.0251 25.9286 42.0483 25.7997 42.0698C25.6744 42.0949 25.5222 42.1074 25.3432 42.1074C25.0997 42.1074 24.8759 42.0591 24.6718 41.9624C24.4677 41.8657 24.3048 41.7046 24.183 41.479C24.0649 41.2498 24.0058 40.9419 24.0058 40.5552V34.7759ZM29.8815 42.1074C29.4769 42.1074 29.1099 42.0394 28.7805 41.9033C28.4546 41.7637 28.1735 41.5685 27.9372 41.3179C27.7045 41.0672 27.5254 40.77 27.4001 40.4263C27.2748 40.0825 27.2121 39.7065 27.2121 39.2983V39.0728C27.2121 38.6001 27.2819 38.1794 27.4216 37.8105C27.5612 37.4382 27.751 37.123 27.9909 36.8652C28.2308 36.6074 28.503 36.4123 28.8073 36.2798C29.1117 36.1473 29.4268 36.0811 29.7526 36.0811C30.168 36.0811 30.5261 36.1527 30.8269 36.2959C31.1312 36.4391 31.3801 36.6396 31.5734 36.8975C31.7668 37.1517 31.91 37.4525 32.0031 37.7998C32.0962 38.1436 32.1428 38.5195 32.1428 38.9277V39.3735H27.8029V38.5625H31.1491V38.4873C31.1348 38.2295 31.0811 37.9788 30.988 37.7354C30.8985 37.4919 30.7552 37.2913 30.5583 37.1338C30.3614 36.9762 30.0928 36.8975 29.7526 36.8975C29.5271 36.8975 29.3194 36.9458 29.1296 37.0425C28.9398 37.1356 28.7769 37.2752 28.6408 37.4614C28.5048 37.6476 28.3991 37.875 28.3239 38.1436C28.2487 38.4121 28.2111 38.7218 28.2111 39.0728V39.2983C28.2111 39.5741 28.2487 39.8337 28.3239 40.0771C28.4027 40.3171 28.5155 40.5283 28.6623 40.7109C28.8127 40.8936 28.9935 41.0368 29.2048 41.1406C29.4196 41.2445 29.6631 41.2964 29.9353 41.2964C30.2862 41.2964 30.5834 41.2248 30.8269 41.0815C31.0703 40.9383 31.2834 40.7467 31.466 40.5068L32.0676 40.9849C31.9423 41.1746 31.7829 41.3555 31.5896 41.5273C31.3962 41.6992 31.1581 41.8389 30.8752 41.9463C30.5959 42.0537 30.2647 42.1074 29.8815 42.1074Z" fill="#949494"/>
<path d="M17 2.625C10.7164 2.625 5.625 7.71641 5.625 14C5.625 20.2836 10.7164 25.375 17 25.375C23.2836 25.375 28.375 20.2836 28.375 14C28.375 7.71641 23.2836 2.625 17 2.625ZM19.882 18.118L17 15.2359L14.118 18.118C13.7789 18.457 13.2211 18.457 12.882 18.118C12.7125 17.9484 12.625 17.7242 12.625 17.5C12.625 17.2758 12.7125 17.0516 12.882 16.882L15.7641 14L12.882 11.118C12.7125 10.9484 12.625 10.7242 12.625 10.5C12.625 10.2758 12.7125 10.0516 12.882 9.88203C13.2211 9.54297 13.7789 9.54297 14.118 9.88203L17 12.7641L19.882 9.88203C20.2211 9.54297 20.7789 9.54297 21.118 9.88203C21.457 10.2211 21.457 10.7789 21.118 11.118L18.2359 14L21.118 16.882C21.457 17.2211 21.457 17.7789 21.118 18.118C20.7789 18.4625 20.2211 18.4625 19.882 18.118Z" fill="#949494"/>
</svg>
