<svg width="28" height="46" viewBox="0 0 28 46" fill="none" xmlns="http://www.w3.org/2000/svg">
<path d="M22.75 3.5H5.25C4.28203 3.5 3.5 4.28203 3.5 5.25V22.75C3.5 23.718 4.28203 24.5 5.25 24.5H22.75C23.718 24.5 24.5 23.718 24.5 22.75V5.25C24.5 4.28203 23.718 3.5 22.75 3.5ZM22.9688 22.5312C22.9688 22.7719 22.7719 22.9688 22.5312 22.9688H5.46875C5.22812 22.9688 5.03125 22.7719 5.03125 22.5312V5.46875C5.03125 5.22812 5.22812 5.03125 5.46875 5.03125H22.5312C22.7719 5.03125 22.9688 5.22812 22.9688 5.46875V22.5312Z" fill="white"/>
<path d="M19.8845 10.5491L18.922 9.55929C18.8837 9.51554 18.8235 9.49366 18.7688 9.49366C18.7087 9.49366 18.654 9.51554 18.6157 9.55929L11.9438 16.2804L9.51572 13.8523C9.47197 13.8085 9.41728 13.7866 9.3626 13.7866C9.30791 13.7866 9.25322 13.8085 9.20947 13.8523L8.23604 14.8257C8.14854 14.9132 8.14854 15.0499 8.23604 15.1374L11.2985 18.1999C11.4954 18.3968 11.736 18.5116 11.9384 18.5116C12.2282 18.5116 12.4798 18.2984 12.5728 18.2109H12.5782L19.8899 10.8609C19.9665 10.7679 19.9665 10.6312 19.8845 10.5491Z" fill="white"/>
<path d="M8.2242 38.0234C8.2242 37.8408 8.19555 37.6797 8.13826 37.54C8.08455 37.3968 7.98787 37.2679 7.84822 37.1533C7.71216 37.0387 7.52238 36.9295 7.27889 36.8257C7.03898 36.7218 6.73462 36.6162 6.3658 36.5088C5.97908 36.3942 5.62996 36.2671 5.31844 36.1274C5.00691 35.9842 4.74015 35.8213 4.51814 35.6387C4.29614 35.4561 4.12605 35.2466 4.00789 35.0103C3.88973 34.7739 3.83064 34.5036 3.83064 34.1992C3.83064 33.8949 3.89331 33.6138 4.01863 33.356C4.14396 33.0981 4.32299 32.8743 4.55574 32.6846C4.79207 32.4912 5.07316 32.3408 5.399 32.2334C5.72485 32.126 6.08829 32.0723 6.48934 32.0723C7.07658 32.0723 7.5743 32.1851 7.9825 32.4106C8.39428 32.6326 8.7076 32.9245 8.92244 33.2861C9.13729 33.6442 9.24471 34.0273 9.24471 34.4355H8.21346C8.21346 34.1419 8.15079 33.8823 8.02547 33.6567C7.90014 33.4276 7.71036 33.2485 7.45613 33.1196C7.2019 32.9871 6.87964 32.9209 6.48934 32.9209C6.12052 32.9209 5.81616 32.9764 5.57625 33.0874C5.33634 33.1984 5.1573 33.3488 5.03914 33.5386C4.92456 33.7284 4.86727 33.945 4.86727 34.1885C4.86727 34.3532 4.90128 34.5036 4.96932 34.6396C5.04093 34.7721 5.15014 34.8957 5.29695 35.0103C5.44734 35.1248 5.63712 35.2305 5.86629 35.3271C6.09904 35.4238 6.37654 35.5169 6.69881 35.6064C7.14282 35.7318 7.52596 35.8714 7.84822 36.0254C8.17049 36.1794 8.43546 36.353 8.64314 36.5464C8.85441 36.7362 9.01017 36.9528 9.11043 37.1963C9.21427 37.4362 9.26619 37.7083 9.26619 38.0127C9.26619 38.3314 9.20174 38.6196 9.07283 38.8774C8.94393 39.1353 8.75952 39.3555 8.51961 39.5381C8.2797 39.7207 7.99145 39.8621 7.65486 39.9624C7.32186 40.0591 6.94946 40.1074 6.53768 40.1074C6.17602 40.1074 5.81974 40.0573 5.46883 39.957C5.1215 39.8568 4.8046 39.7064 4.51814 39.5059C4.23527 39.3053 4.00789 39.0583 3.83602 38.7646C3.66772 38.4674 3.58357 38.1237 3.58357 37.7334H4.61482C4.61482 38.002 4.66674 38.2329 4.77059 38.4263C4.87443 38.616 5.01587 38.7736 5.1949 38.8989C5.37752 39.0243 5.58341 39.1174 5.81258 39.1782C6.04533 39.2355 6.28702 39.2642 6.53768 39.2642C6.89933 39.2642 7.20548 39.214 7.45613 39.1138C7.70678 39.0135 7.89656 38.8703 8.02547 38.6841C8.15796 38.4979 8.2242 38.2777 8.2242 38.0234ZM14.0838 39.0063V36.0146C14.0838 35.7855 14.0373 35.5868 13.9442 35.4185C13.8547 35.2466 13.7186 35.1141 13.536 35.021C13.3534 34.9279 13.1278 34.8813 12.8592 34.8813C12.6086 34.8813 12.3884 34.9243 12.1986 35.0103C12.0124 35.0962 11.8656 35.209 11.7582 35.3486C11.6543 35.4883 11.6024 35.6387 11.6024 35.7998H10.6087C10.6087 35.5921 10.6625 35.3862 10.7699 35.1821C10.8773 34.978 11.0313 34.7936 11.2318 34.6289C11.4359 34.4606 11.6794 34.3281 11.9623 34.2314C12.2487 34.1312 12.5674 34.0811 12.9183 34.0811C13.3408 34.0811 13.7132 34.1527 14.0355 34.2959C14.3614 34.4391 14.6156 34.6558 14.7982 34.9458C14.9844 35.2323 15.0775 35.5921 15.0775 36.0254V38.7324C15.0775 38.9258 15.0936 39.1317 15.1258 39.3501C15.1616 39.5685 15.2136 39.7565 15.2816 39.9141V40H14.245C14.1949 39.8854 14.1555 39.7332 14.1268 39.5435C14.0982 39.3501 14.0838 39.1711 14.0838 39.0063ZM14.2557 36.4766L14.2665 37.1748H13.2621C12.9792 37.1748 12.7268 37.1981 12.5047 37.2446C12.2827 37.2876 12.0965 37.3538 11.9462 37.4434C11.7958 37.5329 11.6812 37.6457 11.6024 37.7817C11.5236 37.9142 11.4842 38.07 11.4842 38.249C11.4842 38.4316 11.5254 38.5981 11.6078 38.7485C11.6901 38.8989 11.8137 39.0189 11.9784 39.1084C12.1467 39.1943 12.3526 39.2373 12.5961 39.2373C12.9004 39.2373 13.169 39.1729 13.4017 39.0439C13.6345 38.915 13.8189 38.7575 13.9549 38.5713C14.0946 38.3851 14.1698 38.2043 14.1805 38.0288L14.6048 38.5068C14.5798 38.6572 14.5117 38.8237 14.4007 39.0063C14.2897 39.189 14.1411 39.3644 13.9549 39.5327C13.7723 39.6974 13.5539 39.8353 13.2997 39.9463C13.049 40.0537 12.7661 40.1074 12.451 40.1074C12.0572 40.1074 11.7116 40.0304 11.4144 39.8765C11.1208 39.7225 10.8916 39.5166 10.7269 39.2588C10.5658 38.9974 10.4852 38.7056 10.4852 38.3833C10.4852 38.0718 10.5461 37.7979 10.6678 37.5615C10.7896 37.3216 10.965 37.1229 11.1942 36.9653C11.4234 36.8042 11.6991 36.6825 12.0213 36.6001C12.3436 36.5177 12.7035 36.4766 13.1009 36.4766H14.2557ZM18.3429 40H17.3493V33.5762C17.3493 33.1572 17.4245 32.8045 17.5748 32.5181C17.7288 32.228 17.949 32.0096 18.2355 31.8628C18.5219 31.7124 18.8621 31.6372 19.256 31.6372C19.3706 31.6372 19.4852 31.6444 19.5997 31.6587C19.7179 31.673 19.8325 31.6945 19.9435 31.7231L19.8898 32.5342C19.8146 32.5163 19.7287 32.5037 19.632 32.4966C19.5389 32.4894 19.4458 32.4858 19.3527 32.4858C19.1414 32.4858 18.9588 32.5288 18.8048 32.6147C18.6544 32.6971 18.5398 32.8188 18.4611 32.98C18.3823 33.1411 18.3429 33.3398 18.3429 33.5762V40ZM19.5783 34.1885V34.9512H16.4308V34.1885H19.5783ZM23.1874 40.1074C22.7828 40.1074 22.4158 40.0394 22.0863 39.9033C21.7605 39.7637 21.4794 39.5685 21.2431 39.3179C21.0103 39.0672 20.8313 38.77 20.706 38.4263C20.5807 38.0825 20.518 37.7065 20.518 37.2983V37.0728C20.518 36.6001 20.5878 36.1794 20.7275 35.8105C20.8671 35.4382 21.0569 35.123 21.2968 34.8652C21.5367 34.6074 21.8088 34.4123 22.1132 34.2798C22.4176 34.1473 22.7327 34.0811 23.0585 34.0811C23.4739 34.0811 23.832 34.1527 24.1327 34.2959C24.4371 34.4391 24.686 34.6396 24.8793 34.8975C25.0727 35.1517 25.2159 35.4525 25.309 35.7998C25.4021 36.1436 25.4487 36.5195 25.4487 36.9277V37.3735H21.1088V36.5625H24.455V36.4873C24.4407 36.2295 24.387 35.9788 24.2939 35.7354C24.2043 35.4919 24.0611 35.2913 23.8642 35.1338C23.6672 34.9762 23.3987 34.8975 23.0585 34.8975C22.8329 34.8975 22.6252 34.9458 22.4355 35.0425C22.2457 35.1356 22.0828 35.2752 21.9467 35.4614C21.8106 35.6476 21.705 35.875 21.6298 36.1436C21.5546 36.4121 21.517 36.7218 21.517 37.0728V37.2983C21.517 37.5741 21.5546 37.8337 21.6298 38.0771C21.7086 38.3171 21.8214 38.5283 21.9682 38.7109C22.1186 38.8936 22.2994 39.0368 22.5107 39.1406C22.7255 39.2445 22.969 39.2964 23.2411 39.2964C23.592 39.2964 23.8892 39.2248 24.1327 39.0815C24.3762 38.9383 24.5893 38.7467 24.7719 38.5068L25.3735 38.9849C25.2481 39.1746 25.0888 39.3555 24.8954 39.5273C24.7021 39.6992 24.464 39.8389 24.1811 39.9463C23.9018 40.0537 23.5706 40.1074 23.1874 40.1074Z" fill="white"/>
</svg>
